<?xml version="1.0" encoding="UTF-8"?>
<svg id="_Слой_1" data-name="Слой 1" xmlns="http://www.w3.org/2000/svg" viewBox="0 0 396.97 404.27">
  <defs>
    <style>
      .cls-1 {
        fill: #4aa2e9;
      }
    </style>
  </defs>
  <path class="cls-1" d="M156.54,0h81.34c3.59,1.68,7.16,3.14,7.8,7.96,2.12,15.9,4.67,31.75,6.62,47.68,.69,5.62,3.29,8.9,8.18,11.43,7.81,4.05,15.54,8.35,22.84,13.24,3.89,2.61,6.99,2.98,11.22,1.21,14.33-5.98,28.78-11.67,43.23-17.34,7.97-3.12,11.84-1.64,16.02,5.67,11.95,20.9,23.89,41.81,35.87,62.7,4.76,8.31,4.03,12.31-3.44,18.34-11.98,9.67-23.97,19.32-35.84,29.12-1.33,1.1-2.9,3.36-2.61,4.72,2.31,11.17,1.61,22.28-.24,33.36-.72,4.31,.91,6.77,4.37,9.11,13.72,9.31,27.29,18.83,40.85,28.37,4.26,3,5.12,6.11,3.39,10.96-.62,1.73-1.42,3.41-2.33,5-12.2,21.37-24.38,42.75-36.67,64.06-4.79,8.31-8.34,9.43-17.23,5.88-14.18-5.65-28.38-11.27-42.5-17.05-3.42-1.4-6.04-.91-9.16,1.07-8.1,5.13-16.36,10.07-24.84,14.53-4.06,2.14-6.08,4.75-6.71,9.26-2.1,14.85-4.57,29.65-6.78,44.49-.59,3.99-2.39,7.14-6.04,8.61-2.74,1.1-5.85,1.74-8.79,1.76-24.21,.13-48.43,.15-72.64,.04-10.15-.05-12.91-2.72-14.43-12.76-2.18-14.44-4.48-28.87-6.57-43.32-.52-3.62-2.24-5.75-5.45-7.51-8.99-4.93-17.83-10.13-26.58-15.46-2.76-1.68-5.16-2.01-8.14-.79-14.02,5.7-28.06,11.34-42.16,16.83-2.89,1.13-6.05,1.86-9.14,2.14-3.67,.33-6.49-1.42-8.4-4.77-12.55-22.07-25.22-44.08-37.76-66.17-4.03-7.09-3.14-10.96,3.19-16.09,12.07-9.77,24.2-19.46,36.12-29.4,1.66-1.38,3.4-4.24,3.12-6.12-1.62-10.81-1.23-21.51,.41-32.24,.62-4.04-.68-7.05-4.05-9.53-8.8-6.47-17.45-13.14-26.14-19.75-3.67-2.79-7.51-5.39-10.89-8.49-6.76-6.2-6.83-10.6-2.99-16.19,1.78-2.59,3.17-5.46,4.74-8.2,10.64-18.62,21.25-37.26,31.93-55.86,4.22-7.36,9.67-9.21,17.69-6.22,1.36,.5,2.68,1.1,4.01,1.65,12.62,5.28,25.28,10.49,37.85,15.9,3.39,1.46,6.05,1.11,9.17-.88,8.41-5.38,16.93-10.6,25.67-15.42,3.34-1.84,5.23-3.83,5.76-7.67,2.01-14.6,4.53-29.13,6.3-43.76,.87-7.21,3.59-12.21,10.86-14.12Zm-30.83,203.4c.02,38.56,32.67,71.24,71.33,71.4,38.51,.16,71.74-33.06,71.64-71.63-.1-38.92-32.69-71.36-71.68-71.34-39.05,.02-71.31,32.4-71.29,71.56Z"/>
</svg>