<?xml version="1.0" encoding="UTF-8"?>
<svg id="_Слой_1" data-name="Слой 1" xmlns="http://www.w3.org/2000/svg" viewBox="0 0 24.83 24">
  <defs>
    <style>
      .cls-1 {
        fill: #42a5f0;
      }
    </style>
  </defs>
  <path class="cls-1" d="M24.08,10.81L1.89,.13C1.45-.09,.89-.03,.49,.28,.1,.6-.08,1.12,.03,1.61L2,10.12c.04,.2,.22,.36,.43,.38l14.32,1.5-14.32,1.5c-.21,.02-.39,.17-.43,.38L.03,22.39c-.11,.49,.07,1.01,.46,1.32,.23,.19,.53,.29,.82,.29,.2,0,.4-.04,.57-.13L23.91,13.27l.17-.08c.45-.21,.74-.68,.74-1.19s-.29-.97-.74-1.19Z"/>
</svg>